<svg width="201" height="203" viewBox="0 0 201 203" fill="none" xmlns="http://www.w3.org/2000/svg">
<path d="M100.5 152.25V107.844M100.5 107.844C104.737 107.847 108.958 107.31 113.062 106.245M100.5 107.844C96.2626 107.847 92.0417 107.31 87.9375 106.245M119.344 169.497C106.893 171.885 94.1075 171.885 81.6562 169.497M113.062 189.653C104.71 190.536 96.2897 190.536 87.9375 189.653M119.344 152.25V150.626C119.344 142.311 124.855 135.206 131.973 131.037C143.933 124.042 153.274 113.259 158.551 100.359C163.827 87.4581 164.743 73.1603 161.157 59.6807C157.572 46.201 149.684 34.2919 138.717 25.7986C127.75 17.3053 114.316 12.7021 100.496 12.7021C86.6757 12.7021 73.2413 17.3053 62.2743 25.7986C51.3073 34.2919 43.4199 46.201 39.8342 59.6807C36.2486 73.1603 37.1649 87.4581 42.4411 100.359C47.7173 113.259 57.0588 124.042 69.0184 131.037C76.1371 135.206 81.6562 142.311 81.6562 150.626V152.25" stroke="#FFE91F" stroke-width="1.5" stroke-linecap="round" stroke-linejoin="round"/>
</svg>
